Coordinates
nRows=252
nColumns=2
inDegrees=yes
endheader
time	ankle_angle_r	
3.45968	  9.363719	
3.49294	  9.364406	
3.52621	  9.365020	
3.55948	  9.364856	
3.59274	  9.356708	
3.62601	  9.334241	
3.65927	  9.302550	
3.69254	  9.275308	
3.72581	  9.263736	
3.75907	  9.265839	
3.79234	  9.270762	
3.8256	  9.271903	
3.85887	  9.267008	
3.89214	  9.257456	
3.9254	  9.252667	
3.95867	  9.257148	
3.99194	  9.259218	
4.0252	  9.250299	
4.05847	  9.239403	
4.09173	  9.237887	
4.125	  9.244639	
4.15827	  9.248175	
4.19153	  9.239409	
4.2248	  9.222550	
4.25806	  9.210141	
4.29133	  9.212638	
4.3246	  9.231629	
4.35786	  9.256238	
4.39113	  9.276836	
4.4244	  9.296311	
4.45766	  9.314781	
4.49093	  9.325362	
4.52419	  9.327890	
4.55746	  9.325281	
4.59073	  9.318715	
4.62399	  9.316062	
4.65726	  9.325763	
4.69052	  9.340988	
4.72379	  9.344733	
4.75706	  9.330676	
4.79032	  9.312921	
4.82359	  9.309683	
4.85685	  9.320252	
4.89012	  9.330035	
4.92339	  9.330858	
4.95665	  9.324313	
4.98992	  9.316163	
5.02319	  9.312263	
5.05645	  9.312239	
5.08972	  9.313164	
5.12298	  9.317765	
5.15625	  9.325403	
5.18952	  9.327836	
5.22278	  9.323589	
5.25605	  9.318506	
5.28931	  9.315256	
5.32258	  9.314221	
5.35585	  9.314265	
5.38911	  9.312319	
5.42238	  9.307381	
5.45565	  9.300223	
5.48891	  9.293822	
5.52218	  9.293060	
5.55544	  9.296169	
5.58871	  9.297155	
5.62198	  9.297864	
5.65524	  9.302510	
5.68851	  9.307514	
5.72177	  9.307265	
5.75504	  9.300913	
5.78831	  9.291605	
5.82157	  9.283462	
5.85484	  9.277612	
5.8881	  9.275671	
5.92137	  9.284042	
5.95464	  9.301247	
5.9879	  9.312409	
6.02117	  9.308057	
6.05444	  9.294451	
6.0877	  9.283970	
6.12097	  9.282784	
6.15423	  9.286631	
6.1875	  9.289153	
6.22077	  9.290855	
6.25403	  9.296017	
6.2873	  9.305228	
6.32056	  9.314142	
6.35383	  9.317633	
6.3871	  9.316394	
6.42036	  9.317571	
6.45363	  9.322504	
6.4869	  9.323869	
6.52016	  9.320563	
6.55343	  9.318168	
6.58669	  9.317203	
6.61996	  9.315855	
6.65323	  9.315888	
6.68649	  9.320144	
6.71976	  9.326975	
6.75302	  9.327672	
6.78629	  9.318259	
6.81956	  9.308633	
6.85282	  9.307329	
6.88609	  9.310929	
6.91935	  9.315070	
6.95262	  9.319707	
6.98589	  9.325535	
7.01915	  9.333466	
7.05242	  9.340439	
7.08569	  9.339686	
7.11895	  9.328663	
7.15222	  9.309304	
7.18548	  9.290359	
7.21875	  9.286727	
7.25202	  9.296696	
7.28528	  9.298923	
7.31855	  9.284356	
7.35181	  9.264549	
7.38508	  9.252100	
7.41835	  9.249702	
7.45161	  9.252016	
7.48488	  9.255461	
7.51815	  9.257969	
7.55141	  9.251037	
7.58468	  9.231235	
7.61794	  9.208313	
7.65121	  9.191623	
7.68448	  9.184778	
7.71774	  9.187724	
7.75101	  9.196068	
7.78427	  9.206628	
7.81754	  9.217724	
7.85081	  9.226011	
7.88407	  9.231974	
7.91734	  9.240036	
7.9506	  9.251152	
7.98387	  9.261291	
8.01714	  9.264788	
8.0504	  9.258598	
8.08367	  9.247156	
8.11694	  9.239720	
8.1502	  9.240723	
8.18347	  9.248345	
8.21673	  9.259373	
8.25	  9.268711	
8.28327	  9.270407	
8.31653	  9.264845	
8.3498	  9.258310	
8.38306	  9.253879	
8.41633	  9.249085	
8.4496	  9.242674	
8.48286	  9.238270	
8.51613	  9.237795	
8.5494	  9.239587	
8.58266	  9.245764	
8.61593	  9.256740	
8.64919	  9.265214	
8.68246	  9.269546	
8.71573	  9.276096	
8.74899	  9.286588	
8.78226	  9.301579	
8.81552	  9.322640	
8.84879	  9.342378	
8.88206	  9.352096	
8.91532	  9.354072	
8.94859	  9.354772	
8.98185	  9.356946	
9.01512	  9.358678	
9.04839	  9.357477	
9.08165	  9.356352	
9.11492	  9.357989	
9.14819	  9.359758	
9.18145	  9.360784	
9.21472	  9.361045	
9.24798	  9.357541	
9.28125	  9.351896	
9.31452	  9.349656	
9.34778	  9.349532	
9.38105	  9.347725	
9.41431	  9.346805	
9.44758	  9.349535	
9.48085	  9.354006	
9.51411	  9.356828	
9.54738	  9.355250	
9.58065	  9.350005	
9.61391	  9.342734	
9.64718	  9.331049	
9.68044	  9.313815	
9.71371	  9.293369	
9.74698	  9.270992	
9.78024	  9.250509	
9.81351	  9.240187	
9.84677	  9.243310	
9.88004	  9.253546	
9.91331	  9.261907	
9.94657	  9.264257	
9.97984	  9.263239	
10.0131	  9.260616	
10.0464	  9.251736	
10.0796	  9.237724	
10.1129	  9.228823	
10.1462	  9.230829	
10.1794	  9.244742	
10.2127	  9.268959	
10.246	  9.295331	
10.2792	  9.317082	
10.3125	  9.333196	
10.3458	  9.341103	
10.379	  9.338777	
10.4123	  9.331072	
10.4456	  9.325459	
10.4788	  9.324552	
10.5121	  9.324792	
10.5454	  9.323381	
10.5786	  9.323359	
10.6119	  9.326876	
10.6452	  9.331398	
10.6784	  9.334412	
10.7117	  9.333709	
10.745	  9.327740	
10.7782	  9.319225	
10.8115	  9.314817	
10.8448	  9.319053	
10.878	  9.327610	
10.9113	  9.332261	
10.9446	  9.332453	
10.9778	  9.333113	
11.0111	  9.333090	
11.0444	  9.326270	
11.0776	  9.310440	
11.1109	  9.287084	
11.1442	  9.264005	
11.1774	  9.254747	
11.2107	  9.259305	
11.244	  9.261727	
11.2772	  9.251857	
11.3105	  9.233858	
11.3437	  9.219576	
11.377	  9.216185	
11.4103	  9.219049	
11.4435	  9.221392	
11.4768	  9.221675	
11.5101	  9.221687	
11.5433	  9.225496	
11.5766	  9.231980	
11.6099	  9.231699	
11.6431	  9.222050	
11.6764	  9.213229	
11.7097	  9.213439	
11.7429	  9.222186	
11.7762	  9.235448	
11.8095	  9.249409	
